<?xml version="1.0" encoding="UTF-8"?>
<!DOCTYPE svg PUBLIC "-//W3C//DTD SVG 1.1//EN" "http://www.w3.org/Graphics/SVG/1.1/DTD/svg11.dtd">
<!-- Creator: CorelDRAW 2017 -->
<svg xmlns="http://www.w3.org/2000/svg" xml:space="preserve" width="5719px" height="5719px" version="1.1" style="shape-rendering:geometricPrecision; text-rendering:geometricPrecision; image-rendering:optimizeQuality; fill-rule:evenodd; clip-rule:evenodd"
viewBox="0 0 598.16 598.16"
 xmlns:xlink="http://www.w3.org/1999/xlink">
 <defs>
  <style type="text/css">
   <![CDATA[
    .fil0 {fill:black}
    .fil1 {fill:black;fill-rule:nonzero}
   ]]>
  </style>
 </defs>
 <g id="Layer_x0020_1">
  <metadata id="CorelCorpID_0Corel-Layer"/>
  <g id="_569572115424">
   <path class="fil0" d="M299.08 0c165.18,0 299.08,133.9 299.08,299.08 0,165.18 -133.9,299.08 -299.08,299.08 -165.18,0 -299.08,-133.9 -299.08,-299.08 0,-165.18 133.9,-299.08 299.08,-299.08zm144.15 211.19l23.92 15.73 -30.92 10.88c-4.53,1.59 -9.06,3.2 -13.55,4.9 -1.79,0.67 -3.91,1.41 -5.63,2.25 -0.92,0.51 -3.1,1.86 -3.64,2.75 0,0.01 0,0.01 0,0.02 0.04,1.82 0.46,4.13 0.75,5.93 0.72,4.62 1.6,9.23 2.5,13.81 3.11,15.8 4.69,31.83 4.69,47.92 0,4.14 0,8.36 -0.25,12.49 -1.41,23.27 -10.7,43.71 -26.37,60.93 -16.41,18.05 -37.03,29 -61.64,29 -9.41,0 -19.76,0.36 -29,2.28 -1.91,0.4 -6.9,1.64 -9.17,3.03 -1.8,12.37 -3.71,24.72 -5.63,37.07l-0.04 0.26 -0.05 0.26c-3.07,16.35 -9.15,44.03 -30.56,44.03 -6.4,0 -12.02,-2.32 -16.66,-6.19 -3.45,1.54 -7.16,2.4 -11.1,2.4 -9.92,0 -17.26,-5.76 -21.95,-13.71 -2.59,0.68 -5.25,1.08 -7.94,1.08 -11.94,0 -21.57,-5.97 -25.49,-16.43 -0.31,0.01 -0.61,0.01 -0.91,0.01 -13.27,0 -25.09,-7.46 -25.09,-21.99 0,-2.97 0.6,-5.94 1.52,-8.81 -8.28,-4.41 -13.93,-12 -13.93,-22.21 0,-11.67 6.4,-21.12 17.45,-25.06l0.64 -0.22 0.65 -0.18c12.92,-3.41 25.86,-6.74 38.77,-10.2 8.87,-2.38 19.6,-6.52 25.75,-13.71 2.43,-2.83 4.67,-6.4 6.63,-9.57 3.62,-5.85 6.99,-11.9 10.27,-17.95 2.79,-5.14 5.57,-10.4 8.04,-15.74 -7.75,-3.23 -15.96,-5.82 -23.88,-6.72 -5.06,-0.39 -10.13,-0.84 -15.19,-1.28l-0.92 -0.09 -0.9 -0.18c-12.57,-2.57 -22.9,-10.74 -22.98,-24.38 -0.02,-0.01 -0.05,-0.02 -0.07,-0.02 -13.57,-3.78 -24.74,-12.83 -24.74,-27.9 0,-1.07 0.07,-2.14 0.21,-3.2 -13.7,-3.52 -27.3,-11.71 -27.3,-27.59 0,-4.6 1.18,-9.37 2.59,-13.72 -2.2,-1.62 -4.42,-3.2 -6.64,-4.79l-1.07 -0.77 -0.94 -0.94c-11.41,-11.41 -13.78,-29.41 -13.83,-44.84 -0.27,-4.19 -0.44,-8.78 0.17,-12.91l3.51 -23.67 20.7 12.01c9.74,5.64 20.79,9.12 31.82,11.17 5.86,1.09 12.82,1.43 18.78,1.85 13.07,0.92 26.18,1.54 39.27,2.13 6.91,0.3 13.82,0.79 20.71,1.31l0.57 0.05 0.57 0.08c25.11,3.71 52.75,12.91 65.59,36.71 4.7,8.71 6.76,18.29 6.76,28.16 0,3.22 -0.24,6.5 -0.51,9.71 -0.18,2.32 -0.4,4.76 -0.4,7.08 0,0.7 0.03,1.85 0.12,3.11 1.52,-3.3 2.85,-7.44 3.41,-9.42 2.92,-12.09 5.85,-24.18 8.79,-36.27l0.3 -1.21 0.48 -1.16c7.77,-18.77 22.19,-30.03 41.5,-32.08 4.41,-13.12 11.97,-24.52 23.57,-32.65 8.56,-6.01 21.01,-10.41 30.91,-13.64 6.03,-1.97 15.16,-5.34 20.01,-9.6 1.27,-1.21 3.02,-4.28 3.88,-5.8l0.08 -0.15 0.09 -0.14c3.91,-6.6 10.36,-11.07 18.2,-11.07 12.1,0 20.25,9.31 20.25,21.09 0,9.32 -4.92,18.63 -9.88,26.27 -2.57,4.11 -5.13,8.23 -7.7,12.34 -0.66,1.06 -1.38,2.28 -2.13,3.46 -3.72,9.89 -7.55,19.73 -11.31,29.6 -3.5,9.2 -8.37,17.55 -14.51,25z"/>
   <path class="fil1" d="M472.52 114.52c0,4.16 -2.42,9.98 -7.34,17.55 -6.8,10.89 -10.36,16.64 -10.66,17.02 -3.94,10.52 -7.95,20.96 -11.96,31.32 -4.08,10.9 -10.59,20.35 -19.44,28.37l-5.83 -6.5c8.63,-7.79 15.21,-18.69 19.75,-32.53 5.3,-15.82 10.21,-26.64 14.6,-32.39 -11.35,4.62 -22.77,9.08 -34.35,13.55 -11.95,5.14 -19.59,14.3 -23,27.46l-8.47 -2.19c3.41,-13.02 9.69,-22.7 18.84,-29.06 4.77,-3.4 13.62,-7.26 26.63,-11.5 11.8,-3.85 20.35,-8.17 25.72,-12.86 2.2,-1.96 4.62,-5.29 7.27,-9.98 1.21,-2.05 2.64,-3.11 4.23,-3.11 2.65,0 4.01,1.59 4.01,4.85zm-41.68 107.96c-12.26,4.31 -19.45,7.03 -21.49,8.17 -8.17,4.46 -12.18,10.14 -12.18,17.1 0,3.1 1.13,10.74 3.56,22.85 2.95,15.2 4.38,30.11 4.38,44.78 0,5.3 -0.07,9.16 -0.22,11.5 -1.14,18.92 -8.55,35.94 -22.17,51 -14.45,15.81 -31.02,23.68 -49.63,23.68 -33.21,0 -51.22,5.6 -53.87,16.64 -1.89,13.17 -3.93,26.33 -5.98,39.49 -3.85,20.51 -8.7,30.8 -14.6,30.8 -3.4,0 -6.43,-1.82 -9.08,-5.45 -2.72,-3.63 -4.23,-5.45 -4.69,-5.45 -0.75,0 -2.57,1.21 -5.44,3.56 -2.88,2.34 -5.68,3.55 -8.55,3.55 -3.79,0 -6.96,-2.87 -9.39,-8.55 -2.42,-5.67 -4.31,-8.54 -5.67,-8.54 -1.13,0 -3.33,0.75 -6.51,2.27 -3.17,1.43 -5.97,2.19 -8.32,2.19 -6.5,0 -10.14,-2.88 -10.97,-8.63 -0.83,-5.75 -2.19,-8.7 -4.08,-8.7 -1.37,0 -3.26,0.16 -5.75,0.46 -2.58,0.3 -4.39,0.45 -5.6,0.45 -5.9,0 -8.85,-1.89 -8.85,-5.75 0,-1.89 0.9,-4.76 2.64,-8.55 1.82,-3.78 2.65,-6.5 2.65,-8.32 0,-1.44 -2.95,-3.1 -8.85,-4.84 -5.9,-1.82 -8.85,-4.92 -8.85,-9.31 0,-4.91 2.19,-8.17 6.66,-9.76 12.86,-3.4 25.79,-6.81 38.81,-10.21 15.51,-4.24 26.78,-10.52 33.89,-18.84 4.54,-5.29 10.82,-15.43 18.84,-30.34 8.55,-15.66 13.24,-26.33 13.92,-31.92 -15.89,-8.25 -30.11,-13.09 -42.52,-14.45 -4.99,-0.38 -10.14,-0.84 -15.28,-1.29 -6.66,-1.36 -9.99,-4.24 -9.99,-8.63 0,-0.9 0.15,-2.11 0.46,-3.7 0.3,-1.52 0.45,-2.73 0.45,-3.63 0,-3.11 -4.31,-5.83 -12.86,-8.18 -8.55,-2.42 -12.86,-6.43 -12.86,-12.25 0,-1.59 0.53,-3.71 1.51,-6.28 1.06,-2.57 1.59,-4.31 1.59,-5.22 0,-2.35 -5.07,-4.84 -15.06,-7.42 -10.06,-2.57 -15.13,-6.58 -15.13,-11.87 0,-2.05 0.61,-5 1.82,-8.78 1.21,-3.71 1.74,-6.58 1.74,-8.47 0,-2.58 -1.82,-5.22 -5.52,-8.02 -2.96,-2.2 -5.91,-4.32 -8.86,-6.43 -6.05,-6.06 -9.08,-17.33 -9.08,-33.9 -0.3,-4.61 -0.3,-7.94 0,-9.98 10.45,6.05 22.85,10.44 37,13.08 7.42,1.37 27.46,2.73 60.3,4.24 4.54,0.15 11.27,0.61 20.2,1.29 38.96,5.75 58.48,22.01 58.48,48.8 0,1.89 -0.15,4.69 -0.45,8.39 -0.3,3.71 -0.46,6.51 -0.46,8.4 0,15.59 5.07,23.3 15.06,23.3 8.93,0 15.66,-8.47 20.43,-25.49 2.95,-12.26 5.9,-24.44 8.85,-36.55 6.2,-14.98 17.25,-22.39 33.06,-22.39 9.76,0 17.48,3.93 23.23,11.73 8.77,11.8 18.46,21.26 29.28,28.37zm-16.19 -2.2c-7.27,-5.29 -13.39,-12.03 -18.39,-20.2 -3.71,-5.9 -9.23,-8.85 -16.64,-8.85 -11.2,0 -19.45,5.07 -24.59,15.28 -1.74,3.71 -4.84,14.68 -9.31,32.84 -3.55,14.45 -8.24,24.59 -14.14,30.34 -4.17,4.01 -9.31,5.97 -15.59,5.97 -16.49,0 -24.82,-10.36 -24.82,-31.24 0,-1.89 0.16,-4.84 0.46,-8.85 0.3,-4.01 0.45,-6.96 0.45,-8.85 0,-8.63 -1.43,-14.76 -4.23,-18.39 -9.61,-12.86 -29.13,-20.5 -58.71,-22.85 -22.47,-1.36 -44.87,-2.57 -67.19,-3.78 -9.91,-1.59 -18.46,-4.09 -25.72,-7.34l0 11.12c0,5 3.71,10.14 10.97,15.44 7.34,5.22 11.05,10.59 11.05,16.04 0,2.04 -0.68,4.91 -2.05,8.62 -1.28,3.71 -1.96,6.51 -1.96,8.4 0,1.51 5.07,3.71 15.28,6.58 10.21,2.88 15.28,7.41 15.28,13.62 0,1.81 -0.53,4.01 -1.66,6.66 -1.14,2.64 -1.67,4.31 -1.67,4.84 0,1.21 4.24,3.02 12.79,5.45 8.47,2.42 12.71,7.18 12.71,14.29 0,1.37 -0.15,3.48 -0.46,6.44 22.47,1.51 46.16,8.02 70.97,19.51 -0.76,8.55 -5.75,21.42 -15.05,38.59 -8.63,15.81 -16.35,27.69 -23.31,35.63 -7.87,9.01 -18.31,15.44 -31.47,19.3 -12.11,2.95 -24.21,5.82 -36.39,8.7 -5.3,1.59 -7.95,3.7 -7.95,6.35 0,1.21 2.58,2.2 7.72,2.95 6.13,0.68 9.16,3.79 9.16,9.31 0,2.04 -0.84,4.76 -2.35,8.17 -1.59,3.4 -2.34,5.14 -2.34,5.3 0,1.05 0.6,1.58 1.81,1.58 0.98,0 2.42,-0.22 4.31,-0.53 1.82,-0.37 3.26,-0.6 4.32,-0.6 6.35,0 9.98,2.87 10.97,8.62 0.9,5.83 2.27,8.7 4.08,8.7 1.36,0 3.56,-0.75 6.66,-2.26 3.1,-1.44 5.83,-2.2 8.17,-2.2 4.92,0 8.55,2.5 10.9,7.57 1.43,3.1 2.87,6.28 4.16,9.53 0.9,0 2.8,-1.21 5.59,-3.56 2.8,-2.34 5.6,-3.55 8.4,-3.55 3.26,0 5.75,1.13 7.57,3.4 1.74,2.35 3.48,4.62 5.07,7.04 4.01,-6.51 6.96,-16.72 8.85,-30.64 2.65,-20.2 4.16,-31.02 4.46,-32.31 3.71,-15.81 24.21,-23.75 61.59,-23.75 15.51,0 29.96,-7.27 43.27,-21.72 12.71,-13.92 19.45,-28.75 20.35,-44.56 0.16,-2.5 0.23,-5.9 0.23,-10.21 0,-4.69 -2.5,-25.12 -7.56,-61.13 -0.38,-3.26 -0.61,-5.83 -0.61,-7.8 0,-12.25 8.85,-21.26 26.56,-27.01zm-19.07 -8.85c0,3.94 -1.97,5.98 -5.98,5.98 -4.01,0 -5.97,-2.04 -5.97,-5.98 0,-4.01 1.96,-5.97 5.97,-5.97 4.01,0 5.98,1.96 5.98,5.97z"/>
  </g>
 </g>
</svg>
